<?xml version="1.0" standalone="no"?>
<svg version="1.1" id="Layer_1" xmlns="http://www.w3.org/2000/svg" xmlns:xlink="http://www.w3.org/1999/xlink" x="0px" y="0px" width="595.28px" height="595.28px" viewBox="0 0 595.28 595.28" enable-background="new 0 0 595.28 595.28" xml:space="preserve">
<path id="color_x5F_2" fill="#0b8457" d="M284.862,436.013c-1.505-16.203-3.56-32.369-5.826-48.481
	c-1.04-7.396-2.105-14.796-3.428-22.147c-0.876-4.861-1.617-9.523-4.271-13.785c-9.889-15.879-26.249-27.375-40.755-38.727
	c-2.692-2.107-4.757-4.638-6.531-7.387c-17.931,2.686-24.603-21.521-28.761-34.541c-0.188-0.587,0.612-1.096,1.423-1.25
	c1.313-1.528,2.974-2.571,4.832-3.232c-1.274-1.63-2.613-3.198-4.037-4.681c-2.857,0.013-5.714-0.015-8.571-0.073
	c3.28,3.523,4.775,9.746,1.954,13.806c-3.642,5.241-11.124,5.797-16.321,2.752c-3.389-1.985-5.861-5.503-8.698-8.158
	c-3.493-3.269-7.127-6.384-10.607-9.665c-5.083-4.793-8.952-10.434-5.532-17.545c2.243-4.665,6.337-8.693,11.163-10.916
	c-0.691-0.721-1.536-1.535-2.345-2.402c-9.737,2.514-16.783,16.873-11.918,25.922c3.538,6.579,10.424,11.119,15.653,16.299
	c8.268,8.191,19.919,21.869,10.15,32.902c5.213,8.934,9.037,18.476,9.839,29.404c0.045,0.623-0.523,1.103-1.168,1.324
	c-2.241,9.86,3.455,19.303,1.372,29.367c-1.855,8.967-5.208,18.253-9.824,26.186c-2.69,4.624-6.157,8.056-10.061,10.834
	c-0.102,0.072-0.182,0.127-0.24,0.165c-11.422,8.013-26.517,10.546-37.046,20.701c-0.067,0.064-0.164,0.123-0.274,0.177
	c0.567,6.791,4.582,15.557,11.612,17.191c0.504,0.117,0.773,0.352,0.877,0.627c7.77-3.289,15.765-6.652,23.641-10.34l28.579-16.096
	c5.199-3.666,10.093-7.695,14.536-12.203c7.445-7.554,11.128-15.956,12.691-26.364c1.415-9.421,2.493-18.874,3.452-28.344
	c-0.089-0.087-0.181-0.171-0.271-0.259c-0.332-0.326-0.075-0.698,0.394-0.979c0.285-2.847,0.562-5.695,0.833-8.545
	c0.085-0.9,2.939-1.215,2.897-0.777c-0.306,3.212-0.602,6.431-0.909,9.651c5.904,5.714,12.359,10.608,18.978,15.467
	c3.132,2.3,6.919,4.837,8.743,8.399c1.624,3.172,1.172,6.803,1.502,10.263c0.435,4.557,1.07,9.093,1.805,13.61
	c1.745,10.723,3.86,21.4,6.369,31.972c0.926,3.904,1.87,7.814,3.024,11.659c0.373,1.244,0.743,2.498,1.217,3.709
	c0.904,2.311,0.923,0.598-1.087,1.859c0.942-0.592,3.325-0.138,1.942,0.845c6.402,2.063,13.192,1.968,19.8,0.923l0.062-0.023
	C286.008,442.432,285.076,438.321,284.862,436.013z M185.312,362.655c-1.301,0.579-2.993-0.378-1.147-1.199
	c10.623-4.729,16.314-16.182,15.625-27.512c-0.068-1.119,2.84-1.724,2.897-0.777C203.449,345.689,196.873,357.51,185.312,362.655z
	 M278.888,366.798c-0.017-0.102-0.033-0.205-0.05-0.307c0.147,0.68,0.284,1.365,0.401,2.064c0.215,1.293,0.441,2.797,0.675,4.465
	C279.581,370.944,279.24,368.87,278.888,366.798z M171.303,302.664c-0.018,0.026-0.031,0.053-0.049,0.079
	c-0.006-0.01-0.012-0.019-0.018-0.027C171.258,302.699,171.281,302.682,171.303,302.664z M146.952,437.794
	c1.441-0.623,2.882-1.251,4.323-1.885l-2.036,1.146L146.952,437.794z M125.178,420.399c0.037-0.222,0.061-0.344,0.061-0.344
	l0.948-0.461C125.846,419.856,125.511,420.126,125.178,420.399z M159.506,234.72c0.523-0.369,1.061-0.681,1.603-0.97
	c-1.133,0.729-2.969,1.997-4.82,3.644C157.303,236.396,158.4,235.499,159.506,234.72z M202.438,267.634
	c0.929,1.239,1.812,2.521,2.675,3.818c1.722,2.852,3.623,6,5.531,9.158c2.236,4.016,4.345,8.086,6.475,12.008
	c2.056,3.789,3.815,7.682,5.946,11.277c-15.036,0.826-21.129-21.89-24.747-33.312c0.299-0.124,0.574-0.292,0.76-0.53
	C200.014,268.855,201.124,268.111,202.438,267.634z M132.42,175.741c-1.676,0.3-3.334,0.85-4.925,1.494
	c0.155-0.928-0.209-1.68,2.243-1.68C130.598,175.556,131.503,175.628,132.42,175.741z M146.779,185.631
	c-9.724,6.873-19.752,13.331-29.257,20.501l-3.217,1.904c-0.896-4.217-2.87-8.282-2.147-12.654c0.834-5.047,5.166-9.51,8.874-12.668
	c3.572-3.043,9.281-5.582,14.03-5.393C139.93,177.517,143.845,182.132,146.779,185.631z M135.462,195.483
	c4.519-3.086,9.048-6.156,13.515-9.312c0.042-0.016,0.079-0.035,0.119-0.052c0.399,0.572,0.642,0.936,0.642,0.936l-0.116,0.068
	c-0.889-0.391-3.127,0.533-2.477,1.26c0.04,0.045,0.079,0.092,0.119,0.137l-11.787,6.979
	C135.473,195.494,135.467,195.489,135.462,195.483z"></path>
<path id="color_x5F_1" d="M150.093,203.048c-0.562,0.383-1.444,0.572-2.065,0.22c-0.942-0.534-1.299-1.604-1.325-2.628
	c-0.017-0.668,1.136-1.035,1.62-1.083c0.593-0.06,1.28,0.106,1.298,0.794c0.011,0.436,0.281,1.148,0.675,1.372
	C150.915,202.073,150.532,202.748,150.093,203.048z M142.402,194.765c-0.705,1.115-1.016,2.4-1.333,3.666
	c-0.13,0.521,2.681,0.138,2.851-0.539c0.316-1.266,0.628-2.553,1.333-3.666c0.259-0.41-1.055-0.229-1.142-0.213
	C143.609,194.108,142.705,194.286,142.402,194.765z M148.378,212.884c0.024,0.809,0.317,1.609,0.667,2.332
	c0.343,0.707,3.125-0.308,2.897-0.777c-0.35-0.721-0.643-1.522-0.667-2.332C151.262,211.62,148.354,212.075,148.378,212.884z
	 M389.762,323.03c-3.444-0.873-7.964-0.831-11.252-1.273c-1.827-0.246-6.138,0.049-7.636-1.266
	c-4.831-4.238-9.664-8.473-14.499-12.707c-13.265-11.613-26.239-23.795-40.021-34.802c-2.244,0.952-4.72,1.331-7.177,0.909
	c-7.731-1.328-9.667-9.146-7.273-15.094c-0.065-0.041-0.124-0.091-0.17-0.15c-5.936-7.586-12.219-14.911-18.356-22.334
	c-3.224-3.9-6.453-7.795-9.64-11.726c-1.065-1.315-2.802-2.88-3.656-4.501c-3.792,1.271-7.563,1.971-9.911,1.972
	c-0.044,0.118-0.113,0.244-0.23,0.384c-10.968,12.992-22.771,30.141-39.491,36.186c-6.145,2.221-12.685,2.918-19.191,3.1
	c1.191,1.308,2.33,2.668,3.422,4.073c0.245,0.038,0.446,0.14,0.507,0.366c0.024,0.09,0.009,0.176-0.021,0.258
	c7.531,9.898,12.913,21.878,18.743,32.574c1.905,3.496,3.388,7.838,6.549,10.397c2.29,1.853,4.636,3.635,6.958,5.446
	c7.367,5.745,14.68,11.612,21.466,18.043c6.398,6.063,13.43,12.854,17.032,21.066c1.705,3.887,2.227,8.375,2.922,12.539
	c0.017,0.102,0.033,0.205,0.05,0.307c0.353,2.072,0.693,4.146,1.025,6.223c2.277,14.247,4.095,28.578,5.775,42.902
	c0.834,7.114,1.65,14.234,2.255,21.372c0.19,2.249,0.935,5.524,0.561,8.053c11.082,2.645,19.966,6.669,24.437,18.091
	c0.025,0.064,0.036,0.129,0.035,0.191c0.228,0.074,0.086,0.255-0.225,0.457c-0.259,0.266-0.71,0.474-1.176,0.568
	c-0.317,0.118-0.605,0.196-0.768,0.196c-15.778,0-31.556,0-47.333,0c-0.75,0-0.409-0.333,0.187-0.656
	c-0.579,0.134-1.193,0.051-1.494-0.39c-3.951-5.792-2.82-12.391,0.604-18.155c0.052-0.087,0.122-0.165,0.199-0.237
	c-0.21-0.072-0.421-0.14-0.63-0.217c-0.708-0.262-0.095-0.81,0.709-1.154c-1.974-1.942-2.776-7.588-3.17-9.074
	c-2.822-10.631-5.093-21.428-7.045-32.25c-1.015-5.624-1.973-11.268-2.658-16.943c-0.459-3.803-0.109-8.102-0.936-11.813
	c-1.237-5.561-6.95-8.999-11.232-12.118c-5.201-3.788-10.238-7.711-14.97-12.043c-0.877,8.963-1.881,17.926-3.433,26.775
	c-1.838,10.488-5.947,18.999-13.778,26.329c-15.616,14.617-34.995,24.397-54.553,33.005c-1.441,0.634-2.882,1.262-4.323,1.885
	c-3.325,1.436-6.648,2.85-9.951,4.252c-0.069,0.029-0.162,0.055-0.263,0.078c-0.091,0.047-0.187,0.086-0.286,0.115
	c4.13,7.542,7.233,18.867-1.131,24.315c0.007,0.003,0.013,0.005,0.02,0.008c0.965,0.354-1.661,1.455-2.361,1.197
	c-7.48-2.752-13.409-9.101-18.096-15.336c-4.76-6.333-9.13-13.263-11.506-20.874c-0.158-0.504,1.21-1.058,2.126-1.081
	c0.045-0.054,0.101-0.11,0.172-0.171c4.816-4.088,9.928-7.576,15.927-9.675c0.621-0.218,1.363-0.123,1.731,0.108
	c0.431-0.068,0.877-0.01,1.195,0.201c0.213-0.184,0.433-0.355,0.649-0.533c0.333-0.273,0.668-0.543,1.009-0.805
	c14.017-10.764,34.656-12.021,43.789-28.602c4.468-8.111,8.479-17.695,9.814-26.911c1.498-10.334-4.436-19.844-1.075-30.053
	c0.068-0.206,0.271-0.384,0.538-0.527c-1.015-10.369-4.758-19.396-9.746-27.866c-0.145-0.08-0.222-0.195-0.207-0.346
	c-4.5-7.578-9.978-14.721-15.365-21.996c-11.394-15.387-19.376-31.475-16.663-51.122c0.012-0.085,0.037-0.165,0.071-0.241
	c-0.042-1.133-0.079-2.266-0.115-3.398c-0.662-0.061-0.479-0.417-0.024-0.758c0-0.01,0-0.02-0.001-0.028
	c-10.127,0.098-20.996-6.817-23.854-16.786c-0.75,0.211-1.568,0.133-1.636-0.41c-0.833-6.7-4.565-12.398-0.9-18.958
	c3.004-5.378,7.508-10.079,13.109-12.755c1.131-0.541,2.332-1.098,3.574-1.602c1.59-0.645,3.249-1.194,4.925-1.494
	c1.681-0.301,3.377-0.354,5.035,0.013c4.912,1.084,8.432,4.55,11.605,8.247c1.265-0.91,2.53-1.819,3.78-2.75
	c0.722-0.537,3.634-0.522,2.318,0.457c-1.745,1.299-3.509,2.573-5.283,3.834c-0.141,0.228-0.433,0.429-0.78,0.578
	c-0.04,0.017-0.077,0.036-0.119,0.052c-4.467,3.155-8.997,6.226-13.515,9.312c0.005,0.006,0.01,0.011,0.015,0.016
	c0.002,0.002,0.004,0.004,0.005,0.006c3.677,5.123,4.325,11.882,0.569,17.13c-0.163,0.228-0.4,0.386-0.667,0.483
	c-0.576,0.703-2.17,1.03-2.56,0.313c-0.275-0.508-0.554-0.717-0.818-0.739c-0.182,0.11-0.455,0.28-0.775,0.501
	c-0.59,0.849-0.925,2.526-0.622,3.246c0.97,2.302,4.157,4.299,6.621,2.842c0.527-0.313,1.806-0.747,2.267-0.057
	c0.918,1.379,0.476,4.479,0.542,6.049c0.025,0.609,0.042,1.218,0.062,1.826c5.66-0.037,11.28,0.885,16.945,0.684
	c-0.922-1.275-1.498-2.59-1.167-3.816c0.583-2.16,2.622-3.116,4.208-4.467c5.024-4.277,1.649-9.718-0.939-14.107
	c-0.188-0.318-0.046-0.624,0.25-0.871c-0.276-0.078-0.436-0.238-0.351-0.504c0.582-1.821,1.033-5.92-1.559-5.5
	c-0.51,0.353-1.344,0.566-1.889,0.459c-0.304,0.004-0.592-0.06-0.786-0.255c-0.176-0.178-0.148-0.365-0.03-0.537
	c-2.252-3.419-4.795-6.606-7.519-9.663c-0.04-0.045-0.079-0.092-0.119-0.137c-0.65-0.727,1.588-1.65,2.477-1.26
	c0.085,0.037,0.163,0.083,0.22,0.146c2.75,3.076,5.316,6.287,7.589,9.729c1.596-0.376,3.42-0.407,4.334,0.94
	c1.137,1.678,0.755,3.883,0.175,5.697c-0.05,0.157-0.176,0.297-0.342,0.421c0.103,0.05,0.188,0.114,0.241,0.204
	c2.879,4.883,6.366,11.447,0.566,15.695c-1.433,1.051-4.365,2.755-3.351,4.91c0.51,1.082,1.128,2.053,1.875,2.975
	c0.039,0.033,0.068,0.071,0.088,0.113c0.024,0.029,0.045,0.059,0.069,0.088c0.824,0.986,1.768,1.9,2.622,2.874
	c0.97-0.286,1.956-0.504,2.956-0.632c10.565-1.35,20.09,4.618,30.491,4.115c10.57-0.51,20.809-3.689,29.594-9.617
	c7.315-4.936,13.899-10.864,20.696-16.474c-0.206-0.276,0.302-0.656,0.949-0.907c0.558-4.592,3.376-8.098,7.425-10.268
	c-7.139-9.405-14.03-19.012-21.02-28.523c-1.53-2.082-5.142-5.324-5.466-8.014c-0.644-5.33-1.398-10.66-1.918-16.004
	c-0.456-0.252-0.883-0.529-1.263-0.842c-0.895-0.736,1.815-1.894,2.678-1.184c0.136,0.111,0.294,0.213,0.443,0.318
	c0.524-0.021,0.961,0.141,1,0.551c0.002,0.027,0.006,0.054,0.008,0.08c1.963,1.08,4.491,1.846,6.329,2.689
	c3.125,1.435,6.255,2.861,9.388,4.281c2.827,1.283,4.031,5.005,5.564,7.576c6.851,11.494,13.325,23.43,20.866,34.499
	c0.212-0.032,0.431-0.046,0.66-0.03c2.643,0.185,3.165,1.686,2.748,3.35c1.854,0.092,3.793,0.652,4.534,2.553
	c0.832,2.133,0.079,4.551-0.746,6.579c0.463-0.054,0.897,0.019,1.121,0.285c1.293,1.546,1.851,3.017,1.854,4.401
	c0.002,0,0.005,0,0.008,0.001c1.703,0.479,3.475,4.615,4.353,5.935c3.301,4.958,6.579,9.933,9.852,14.909
	c4.68,7.116,9.351,14.238,14.014,21.366c0.52-0.038,1.057-0.041,1.612-0.002c6.645-0.3,13.969,3.855,12.173,11.576
	c-0.055,0.236-0.132,0.465-0.201,0.697c0.113,0.026,0.218,0.063,0.302,0.123c14.55,10.262,29.313,20.232,43.982,30.322
	c5.501,3.785,11.003,7.568,16.505,11.352c1.495,1.027,2.122,4.093,2.81,5.66c1.46,3.326,2.985,6.636,4.379,9.992
	c0.485,0.128,0.959,0.272,1.399,0.457c1.297,0.545-1.324,1.897-2.281,1.496c-0.11-0.046-0.238-0.077-0.352-0.12
	C390.563,323.557,389.979,323.448,389.762,323.03z M117.522,206.132c9.505-7.17,19.534-13.628,29.257-20.501
	c-2.934-3.499-6.85-8.114-11.717-8.31c-4.75-0.189-10.458,2.35-14.03,5.393c-3.708,3.158-8.04,7.621-8.874,12.668
	c-0.722,4.372,1.251,8.438,2.147,12.654c0.034,0.159,0.069,0.318,0.1,0.478C115.435,207.708,116.478,206.919,117.522,206.132z
	 M123.275,204.031l9.953-6.635c-0.057-0.087-0.115-0.173-0.173-0.259C129.765,199.396,126.499,201.685,123.275,204.031z
	 M261.497,199.899c2.792-1.084,5.168-3.097,7.443-5.041c0.32-0.273,0.642-0.575,0.973-0.868
	c-7.611-11.138-14.129-23.162-21.028-34.741c-1.236-2.074-2.472-4.149-3.706-6.226c-0.545-0.917-1.876-1.226-3.25-1.85
	c-3.404-1.548-6.807-3.097-10.199-4.669c-0.375-0.174-0.776-0.342-1.187-0.51c0.5,4.614,1.132,9.221,1.689,13.827
	c0.294,2.44,4.594,6.72,6.268,8.997C246.129,179.198,253.617,189.71,261.497,199.899z M171.237,302.716
	c0.006,0.009,0.012,0.018,0.018,0.027c0.018-0.026,0.031-0.053,0.049-0.079c9.451-13.826-13.437-30.999-22.082-39.454
	c-6.693-6.547-8.685-13.925-4.862-22.746c2.153-4.969,6.008-9.055,10.83-11.248c-5.028,0.102-10.021-0.611-15.04-0.693
	c0.037,1.201,0.073,2.4,0.125,3.601c0.014,0.069,0.019,0.144,0.011,0.227c0,0.005-0.001,0.011-0.001,0.017
	c-0.012,0.139-0.079,0.27-0.178,0.39c-2.497,20.251,6.677,36.314,18.53,52C163.088,290.647,167.465,296.55,171.237,302.716z
	 M132.71,441.55c-0.052-0.086-0.005-0.192,0.106-0.303c-6.842-3.314-10.581-12.002-10.794-19.28
	c-5.272,1.972-9.761,5.085-14.047,8.722c-0.284,0.242-0.984,0.398-1.587,0.415c2.344,7.319,6.52,14.263,11.214,20.294
	c4.367,5.613,9.528,11.507,16.146,14.506C141.213,460.208,136.724,448.196,132.71,441.55z M287.612,447.204
	c-0.846,0.441-2.228,0.359-2.225-0.479c-6.646,1.063-13.447,1.185-19.938-0.548c-3.043,5.207-4.235,11.061-0.633,16.34
	c0.337,0.494,0.12,0.967-0.313,1.295c0.341-0.131,0.655-0.22,0.829-0.22c14.813,0,29.627,0,44.44,0
	C305.542,453.454,297.578,449.679,287.612,447.204z M275.607,365.384c-0.876-4.861-1.617-9.523-4.271-13.785
	c-9.889-15.879-26.249-27.375-40.755-38.727c-2.692-2.107-4.757-4.638-6.531-7.387c-17.931,2.686-24.603-21.521-28.761-34.541
	c-0.188-0.587,0.612-1.096,1.423-1.25c1.313-1.528,2.974-2.571,4.832-3.232c-1.274-1.63-2.613-3.198-4.037-4.681
	c-2.857,0.013-5.714-0.015-8.571-0.073c3.28,3.523,4.775,9.746,1.954,13.806c-3.642,5.241-11.124,5.797-16.321,2.752
	c-3.389-1.985-5.861-5.503-8.698-8.158c-3.493-3.269-7.127-6.384-10.607-9.665c-5.083-4.793-8.952-10.434-5.532-17.545
	c2.243-4.665,6.337-8.693,11.163-10.916c-0.691-0.721-1.536-1.535-2.345-2.402c-9.737,2.514-16.783,16.873-11.918,25.922
	c3.538,6.579,10.424,11.119,15.653,16.299c8.268,8.191,19.919,21.869,10.15,32.902c5.213,8.934,9.037,18.476,9.839,29.404
	c0.045,0.623-0.523,1.103-1.168,1.324c-2.241,9.86,3.455,19.303,1.372,29.367c-1.855,8.967-5.208,18.253-9.824,26.186
	c-2.69,4.624-6.157,8.056-10.061,10.834c-0.08,0.057-0.161,0.109-0.24,0.165c-11.422,8.013-26.517,10.546-37.046,20.701
	c-0.067,0.064-0.164,0.123-0.274,0.177c0.567,6.791,4.582,15.557,11.612,17.191c0.504,0.117,0.773,0.352,0.877,0.627
	c7.77-3.289,15.765-6.652,23.641-10.34c9.953-4.658,19.712-9.842,28.579-16.096c5.199-3.666,10.093-7.695,14.536-12.203
	c7.445-7.554,11.128-15.956,12.691-26.364c1.415-9.421,2.493-18.874,3.452-28.344c-0.089-0.087-0.181-0.171-0.271-0.259
	c-0.332-0.326-0.075-0.698,0.394-0.979c0.285-2.847,0.562-5.695,0.833-8.545c0.085-0.9,2.939-1.215,2.897-0.777
	c-0.306,3.212-0.602,6.431-0.909,9.651c5.904,5.714,12.359,10.608,18.978,15.467c3.132,2.3,6.919,4.837,8.743,8.399
	c1.624,3.172,1.172,6.803,1.502,10.263c0.435,4.557,1.07,9.093,1.805,13.61c1.745,10.723,3.86,21.4,6.369,31.972
	c0.926,3.904,1.87,7.814,3.024,11.659c0.373,1.244,0.743,2.498,1.217,3.709c0.904,2.311,0.923,0.598-1.087,1.859
	c0.942-0.592,3.325-0.138,1.942,0.845c6.402,2.063,13.192,1.968,19.8,0.923c0.021-0.004,0.041-0.006,0.062-0.009
	c0-0.005,0-0.01,0-0.015c0.287-2.675-0.646-6.785-0.86-9.094c-1.505-16.203-3.56-32.369-5.826-48.481
	C277.996,380.136,276.931,372.735,275.607,365.384z M205.114,271.452c-0.864-1.298-1.747-2.579-2.675-3.818
	c-1.314,0.478-2.424,1.222-3.36,2.42c-0.186,0.238-0.461,0.406-0.76,0.53c3.618,11.422,9.711,34.138,24.747,33.312
	c-2.131-3.596-3.89-7.488-5.946-11.277c-2.129-3.922-4.238-7.992-6.475-12.008C208.907,277.489,207.084,274.409,205.114,271.452z
	 M258.366,221.21c-3.449-3.639-6.292-7.807-9.65-11.524c-9.475,7.931-18.853,16.823-30.396,21.538
	c-6.541,2.672-13.33,4.102-20.352,4.754c-7.324,0.682-14.283-2.137-21.353-3.494c-4.003-0.768-8.098-1.129-11.925-0.144
	c-0.079,0.729-1.918,1.345-2.625,0.927c-0.322,0.146-0.639,0.314-0.956,0.483c-0.542,0.289-1.08,0.601-1.603,0.97
	c-1.105,0.779-2.203,1.676-3.217,2.674c-2.158,2.126-3.928,4.717-4.544,7.645c-1.649,7.842,4.04,12.354,9.295,17.086
	c2.849,2.565,5.753,5.084,8.491,7.77c2.594,2.543,5.072,6.09,8.465,7.613c11.942,5.367,14.486-10.559,7.091-15.742
	c-0.072-0.051-0.128-0.102-0.172-0.154c-7.093-0.202-14.184-0.535-21.271-0.777c-1.963-0.067-0.305-2.053,1.03-2.008
	c11.6,0.396,23.244,1.153,34.855,0.934c6.919-0.131,14.181-0.488,20.679-3.108c15.689-6.327,26.815-22.528,37.328-34.981
	C257.727,221.443,258.031,221.293,258.366,221.21z M278.065,206.475c-0.112-0.134-0.147-0.269-0.134-0.401
	c-0.808,0.011-1.526-0.406-1.166-1.278c0.852-2.062,2.233-6.567-1.384-6.674c-0.201-0.006-0.36-0.048-0.511-0.095
	c-0.417,0.654-0.906,1.256-1.393,1.719c-0.528,0.502-3.307,0.805-2.637,0.168c1.511-1.437,3.195-4.041,1.751-5.418
	c-0.36,0.238-0.854,0.397-1.301,0.422c-3.787,3.153-7.643,6.021-12.721,6.828c-1.162,0.186-1.219-0.16-0.833-0.525
	c-0.166-0.071-0.296-0.178-0.36-0.336c-0.348-0.871-0.38-1.635-0.731-2.386c-3.456,2.131-5.36,5.686-5.461,9.87
	c0,0.006-0.003,0.012-0.003,0.018c3.5,3.819,6.42,8.146,9.999,11.898C267.371,220.284,284.861,214.595,278.065,206.475z
	 M307.824,252.603c-4.374-6.686-8.754-13.368-13.144-20.043c-3.187-4.846-6.375-9.691-9.586-14.52
	c-1.126-1.693-2.25-3.389-3.395-5.068c-0.023-0.035-0.059-0.078-0.088-0.117c-1.613,2.527-5.006,4.633-8.746,6.19
	c0.861,1.79,3.279,4.032,4.531,5.565c3.329,4.078,6.684,8.135,10.04,12.191c5.321,6.432,10.743,12.799,15.923,19.348
	C304.486,254.596,305.99,253.342,307.824,252.603z M321.834,262.405c0.207-5.729-4.376-8.497-9.679-8.236
	c-0.134,0.007-0.255,0-0.367-0.014c-0.002,0-0.005,0-0.008,0c-9.682-0.931-11,16.574-1.635,17.506
	C315.596,272.204,321.624,268.224,321.834,262.405z M388.917,321.049c-1.234-2.892-2.543-5.755-3.806-8.631
	c-0.96-2.188-1.605-4.537-2.689-5.282c-5.857-4.027-11.713-8.055-17.568-12.083c-13.806-9.497-27.694-18.891-41.399-28.534
	c-1.082,2.041-2.69,3.813-4.62,5.121c14.094,11.238,27.35,23.691,40.905,35.563c4.472,3.917,8.942,7.834,13.41,11.754
	c-0.013-0.039,0.393,0.188,1.078,0.279c0.91,0.121,1.82,0.242,2.73,0.363c2.499,0.335,4.998,0.671,7.496,1.016
	C385.815,320.803,387.37,320.89,388.917,321.049z M306.055,60.595c-0.083-0.135-0.089-0.303,0.049-0.508
	c0.393-0.584,1.254-0.797,1.912-0.797c2.546,0,5.092,0,7.638,0c0.643-0.166,1.356-0.108,1.622,0.296
	c0.082,0.091,0.124,0.201,0.104,0.332c0.001,0.017,0.007,0.03,0.007,0.047c0,6.745,0,13.489,0,20.234
	c0,0.85-1.872,1.388-2.612,0.886c-2.754,0-5.508,0-8.263,0c-0.337,0-0.47-0.122-0.438-0.277c-0.006-0.02-0.017-0.038-0.017-0.061
	C306.055,74.029,306.055,67.312,306.055,60.595z M308.953,79.937c1.841,0,3.682,0,5.523,0c0-6.326,0-12.652,0-18.979
	c-1.841,0-3.682,0-5.523,0C308.953,67.284,308.953,73.61,308.953,79.937z M317.379,397.055c0.001,0.017,0.007,0.03,0.007,0.047
	c0,6.745,0,13.489,0,20.234c0,0.85-1.872,1.388-2.612,0.886c-2.754,0-5.508,0-8.263,0c-0.337,0-0.47-0.122-0.438-0.277
	c-0.006-0.02-0.017-0.038-0.017-0.061c0-6.718,0-13.436,0-20.152c-0.083-0.135-0.089-0.303,0.049-0.508
	c0.393-0.584,1.254-0.797,1.912-0.797c2.546,0,5.092,0,7.638,0c0.643-0.166,1.356-0.108,1.622,0.296
	C317.357,396.813,317.399,396.924,317.379,397.055z M314.476,398.095c-1.841,0-3.682,0-5.523,0c0,6.326,0,12.652,0,18.979
	c1.841,0,3.682,0,5.523,0C314.476,410.747,314.476,404.421,314.476,398.095z M180.886,115.733c0-0.004,0-0.008,0.001-0.012
	c0.012-0.158,0.077-0.326,0.24-0.49c1.906-1.905,3.811-3.811,5.716-5.717c0.163-0.328,0.665-0.624,1.218-0.777
	c0.012-0.002,0.024-0.006,0.037-0.01c0.586-0.154,1.213-0.146,1.527,0.168c4.769,4.77,9.539,9.539,14.308,14.309
	c0.076,0.076,0.115,0.154,0.138,0.232c0.078,0.055,0.086,0.142,0,0.262c-0.065,0.189-0.254,0.371-0.503,0.524
	c-1.85,1.85-3.7,3.699-5.551,5.55c-0.368,0.367-1.016,0.547-1.573,0.633c-0.241,0.049-0.473,0.07-0.674,0.055
	c-0.22-0.012-0.457-0.057-0.494-0.184c-4.701-4.701-9.402-9.4-14.103-14.102C180.971,116.069,180.877,115.916,180.886,115.733z
	 M183.976,115.208c4.372,4.373,8.744,8.743,13.116,13.115c1.35-1.35,2.701-2.7,4.051-4.051c-4.372-4.372-8.744-8.744-13.115-13.116
	C186.677,112.507,185.327,113.857,183.976,115.208z M442.462,361.827c0.078,0.056,0.087,0.143-0.001,0.264
	c-0.066,0.188-0.253,0.367-0.5,0.521c-1.851,1.851-3.702,3.702-5.553,5.554c-0.368,0.367-1.016,0.547-1.574,0.633
	c-0.241,0.049-0.473,0.07-0.674,0.055c-0.22-0.012-0.457-0.057-0.494-0.184c-4.701-4.701-9.402-9.402-14.103-14.104
	c-0.202-0.105-0.295-0.259-0.286-0.441c0-0.004,0-0.008,0.001-0.012c0.012-0.158,0.077-0.326,0.24-0.49
	c1.906-1.905,3.811-3.811,5.716-5.717c0.163-0.328,0.665-0.624,1.218-0.777c0.012-0.002,0.024-0.006,0.037-0.01
	c0.586-0.154,1.213-0.146,1.527,0.168c4.769,4.77,9.538,9.54,14.308,14.309C442.401,361.671,442.439,361.749,442.462,361.827z
	 M439.534,362.663c-4.372-4.372-8.743-8.744-13.115-13.116c-1.351,1.351-2.701,2.701-4.052,4.052
	c4.373,4.373,8.744,8.744,13.116,13.117C436.833,365.364,438.184,364.014,439.534,362.663z M419.334,124.149
	c-0.06-0.166,0.006-0.381,0.279-0.654c4.769-4.77,9.539-9.539,14.309-14.309c0.244-0.244,0.709-0.395,1.183-0.446
	c0.535-0.115,1.072-0.093,1.339,0.175c1.998,1.998,3.995,3.996,5.993,5.994c0.363,0.362-0.029,0.787-0.626,1.07
	c-4.577,4.576-9.155,9.152-13.732,13.73c-0.098,0.098-0.267,0.186-0.472,0.262c-0.701,0.397-1.958,0.75-2.298,0.408
	c-1.997-1.998-3.995-3.994-5.993-5.992C419.251,124.322,419.268,124.239,419.334,124.149z M422.349,123.713
	c1.525,1.524,3.051,3.05,4.576,4.575c4.177-4.177,8.354-8.354,12.532-12.531c-1.525-1.525-3.05-3.051-4.576-4.576
	C430.703,115.358,426.526,119.535,422.349,123.713z M491.905,234.47c0,2.825-0.001,5.65-0.001,8.477
	c0,0.802-1.993,1.361-2.672,0.826c-6.536,0.001-13.072,0-19.609,0c-0.298,0-0.489-0.035-0.611-0.092
	c-0.236-0.016-0.394-0.068-0.394-0.168c0-2.826,0-5.651,0-8.477c0-0.244,0.269-0.451,0.642-0.609
	c0.404-0.363,1.012-0.674,1.503-0.674c6.745,0,13.49,0,20.235,0c0.649,0,0.873,0.197,0.847,0.459
	C491.88,234.288,491.905,234.371,491.905,234.47z M489.005,235.542c-5.83,0-11.66,0-17.489,0c0,2.277,0,4.555,0,6.832
	c5.83,0.001,11.659,0.001,17.488,0C489.005,240.097,489.005,237.819,489.005,235.542z M199.79,333.944
	c0.689,11.33-5.002,22.783-15.625,27.512c-1.846,0.821-0.153,1.778,1.147,1.199c11.561-5.146,18.137-16.966,17.375-29.488
	C202.629,332.221,199.721,332.825,199.79,333.944z M217,115.728c2.071,0,3.75-1.678,3.75-3.748c0-2.072-1.679-3.75-3.75-3.75
	c-2.071,0-3.75,1.678-3.75,3.75C213.25,114.05,214.929,115.728,217,115.728z M231,104.728c2.071,0,3.75-1.678,3.75-3.748
	c0-2.072-1.679-3.75-3.75-3.75c-2.071,0-3.75,1.678-3.75,3.75C227.25,103.05,228.929,104.728,231,104.728z M248.5,95.728
	c2.071,0,3.75-1.678,3.75-3.748c0-2.072-1.679-3.75-3.75-3.75c-2.071,0-3.75,1.678-3.75,3.75
	C244.75,94.05,246.429,95.728,248.5,95.728z M266.5,89.228c2.071,0,3.75-1.678,3.75-3.748c0-2.072-1.679-3.75-3.75-3.75
	c-2.071,0-3.75,1.678-3.75,3.75C262.75,87.55,264.429,89.228,266.5,89.228z M284.75,84.228c2.071,0,3.75-1.678,3.75-3.748
	c0-2.072-1.679-3.75-3.75-3.75c-2.071,0-3.75,1.678-3.75,3.75C281,82.55,282.679,84.228,284.75,84.228z M406.5,108.229
	c-2.071,0-3.75,1.678-3.75,3.75c0,2.07,1.679,3.748,3.75,3.748c2.071,0,3.75-1.678,3.75-3.748
	C410.25,109.907,408.571,108.229,406.5,108.229z M392.5,97.229c-2.071,0-3.75,1.678-3.75,3.75c0,2.07,1.679,3.748,3.75,3.748
	c2.071,0,3.75-1.678,3.75-3.748C396.25,98.907,394.571,97.229,392.5,97.229z M375,95.728c2.071,0,3.75-1.678,3.75-3.748
	c0-2.072-1.679-3.75-3.75-3.75c-2.071,0-3.75,1.678-3.75,3.75C371.25,94.05,372.929,95.728,375,95.728z M357,89.228
	c2.071,0,3.75-1.678,3.75-3.748c0-2.072-1.679-3.75-3.75-3.75c-2.071,0-3.75,1.678-3.75,3.75
	C353.25,87.55,354.929,89.228,357,89.228z M338.75,84.228c2.071,0,3.75-1.678,3.75-3.748c0-2.072-1.679-3.75-3.75-3.75
	c-2.071,0-3.75,1.678-3.75,3.75C335,82.55,336.679,84.228,338.75,84.228z M404.874,365.612c-2.07,0.018-3.735,1.709-3.717,3.779
	c0.018,2.072,1.71,3.736,3.781,3.719c2.071-0.018,3.735-1.711,3.718-3.781C408.638,367.257,406.945,365.595,404.874,365.612z
	 M390.968,376.729c-2.071,0.018-3.735,1.711-3.718,3.781c0.018,2.072,1.71,3.734,3.781,3.717c2.071-0.018,3.736-1.709,3.718-3.781
	C394.732,378.376,393.039,376.712,390.968,376.729z M373.545,385.878c-2.071,0.018-3.735,1.711-3.718,3.781s1.71,3.734,3.781,3.717
	c2.071-0.018,3.736-1.709,3.718-3.779C377.309,387.524,375.616,385.86,373.545,385.878z M355.601,392.53
	c-2.071,0.018-3.735,1.711-3.718,3.781c0.018,2.072,1.71,3.734,3.781,3.717c2.071-0.018,3.736-1.709,3.718-3.779
	C359.365,394.177,357.672,392.513,355.601,392.53z M337.393,397.687c-2.071,0.018-3.735,1.709-3.717,3.781
	c0.018,2.07,1.71,3.732,3.781,3.715s3.735-1.709,3.718-3.779C341.157,399.331,339.464,397.669,337.393,397.687z M469.852,209.491
	c-1.324,1.592-1.106,3.955,0.487,5.279s3.956,1.107,5.28-0.484c1.324-1.594,1.106-3.957-0.487-5.281
	C473.539,207.681,471.175,207.897,469.852,209.491z M471.883,196.876c1.324-1.592,1.106-3.957-0.487-5.279
	c-1.592-1.324-3.956-1.107-5.28,0.486c-1.324,1.592-1.105,3.955,0.487,5.279S470.56,198.47,471.883,196.876z M464.179,178.769
	c1.324-1.592,1.105-3.955-0.488-5.279c-1.592-1.324-3.956-1.107-5.28,0.484c-1.324,1.594-1.106,3.957,0.487,5.281
	C460.491,180.577,462.855,180.362,464.179,178.769z M454.492,162.263c1.324-1.592,1.105-3.955-0.487-5.279s-3.956-1.105-5.28,0.486
	c-1.323,1.594-1.105,3.957,0.487,5.279C450.804,164.073,453.168,163.856,454.492,162.263z M437.886,141.96
	c-1.324,1.592-1.106,3.955,0.486,5.279c1.593,1.324,3.957,1.105,5.281-0.486c1.324-1.594,1.105-3.957-0.487-5.279
	C441.573,140.149,439.21,140.366,437.886,141.96z M165.826,179.255c1.593-1.324,1.811-3.688,0.487-5.281
	c-1.324-1.592-3.688-1.809-5.28-0.484c-1.593,1.324-1.812,3.688-0.488,5.279C161.869,180.362,164.233,180.577,165.826,179.255z
	 M175.513,162.749c1.592-1.322,1.81-3.686,0.487-5.279c-1.324-1.592-3.688-1.811-5.28-0.486s-1.812,3.688-0.487,5.279
	C171.556,163.856,173.92,164.073,175.513,162.749z M186.352,147.239c1.592-1.324,1.81-3.688,0.486-5.279
	c-1.324-1.594-3.687-1.811-5.28-0.486c-1.593,1.322-1.812,3.686-0.487,5.279C182.395,148.345,184.759,148.563,186.352,147.239z
	 M471.838,266.974c-1.593,1.324-1.811,3.686-0.487,5.279c1.324,1.592,3.688,1.809,5.28,0.486c1.593-1.324,1.811-3.688,0.487-5.281
	C475.794,265.866,473.431,265.649,471.838,266.974z M468.104,284.382c-1.593,1.322-1.811,3.688-0.487,5.279
	c1.324,1.594,3.688,1.811,5.28,0.486c1.593-1.324,1.812-3.688,0.487-5.281C472.06,283.274,469.696,283.058,468.104,284.382z
	 M460.398,302.489c-1.593,1.324-1.811,3.686-0.487,5.279c1.324,1.592,3.688,1.811,5.28,0.486c1.593-1.324,1.812-3.688,0.488-5.279
	C464.355,301.382,461.991,301.165,460.398,302.489z M450.711,318.993c-1.592,1.324-1.81,3.688-0.487,5.281
	c1.324,1.592,3.688,1.811,5.28,0.486s1.812-3.689,0.487-5.281C454.668,317.886,452.304,317.671,450.711,318.993z M439.872,334.505
	c-1.592,1.324-1.81,3.688-0.486,5.279c1.324,1.594,3.687,1.811,5.28,0.486s1.812-3.688,0.487-5.279
	C443.829,333.397,441.465,333.181,439.872,334.505z" fill="#10316b"></path>
</svg>