<svg class="animated" id="freepik_stories-outer-space" xmlns="http://www.w3.org/2000/svg" viewBox="0 0 500 500" version="1.1" xmlns:xlink="http://www.w3.org/1999/xlink" xmlns:svgjs="http://svgjs.com/svgjs"><style>svg#freepik_stories-outer-space:not(.animated) .animable {opacity: 0;}svg#freepik_stories-outer-space.animated #freepik--Shadow--inject-21 {animation: 1s 1 forwards cubic-bezier(.36,-0.01,.5,1.38) zoomIn;animation-delay: 0s;}svg#freepik_stories-outer-space.animated #freepik--Character--inject-21 {animation: 1s 1 forwards cubic-bezier(.36,-0.01,.5,1.38) slideUp,3s Infinite  linear floating;animation-delay: 0s,1s;}            @keyframes zoomIn {                0% {                    opacity: 0;                    transform: scale(0.5);                }                100% {                    opacity: 1;                    transform: scale(1);                }            }                    @keyframes slideUp {                0% {                    opacity: 0;                    transform: translateY(30px);                }                100% {                    opacity: 1;                    transform: inherit;                }            }                    @keyframes floating {                0% {                    opacity: 1;                    transform: translateY(0px);                }                50% {                    transform: translateY(-10px);                }                100% {                    opacity: 1;                    transform: translateY(0px);                }            }        </style><g id="freepik--Shadow--inject-21" class="animable" style="transform-origin: 250px 416.24px;"><ellipse id="freepik--path--inject-21" cx="250" cy="416.24" rx="193.89" ry="11.32" style="fill: rgb(245, 245, 245); transform-origin: 250px 416.24px;" class="animable"></ellipse></g><g id="freepik--Character--inject-21" class="animable" style="transform-origin: 239.965px 246.83px;"><path d="M229.86,169c3.79-2.42,6-7.34,9-10.62,6-6.51,15.27-17.14,16.67-23.18l-23.28-8L224.54,146c-1.63,4.36-8.89,10.73-12.92,12.8-2.36,1.23-4.94,2.32-7.56,3.41-5.26,2.12-10.91,4-16.38,5.89l1.38,9.93a93.76,93.76,0,0,0,9.54-.4c3.15-.3,6.31-.7,9.47-1.3a80.78,80.78,0,0,0,9.6-2.35C220.91,173,226.52,171.12,229.86,169Z" style="fill: #318270; transform-origin: 221.605px 152.617px;" id="elnun4os46p2" class="animable"></path><g id="elju1sl6krqpp"><path d="M229.86,169c3.79-2.42,6-7.34,9-10.62,6-6.51,15.27-17.14,16.67-23.18l-23.28-8L224.54,146c-1.63,4.36-8.89,10.73-12.92,12.8-2.36,1.23-4.94,2.32-7.56,3.41-5.26,2.12-10.91,4-16.38,5.89l1.38,9.93a93.76,93.76,0,0,0,9.54-.4c3.15-.3,6.31-.7,9.47-1.3a80.78,80.78,0,0,0,9.6-2.35C220.91,173,226.52,171.12,229.86,169Z" style="fill: rgb(255, 255, 255); opacity: 0.8; transform-origin: 221.605px 152.617px;" class="animable" id="eld3qzr1oaics"></path></g><path d="M205.56,178.14l-4.22-15.91s-24.45,4.46-25.23,11.23C175.31,180.46,192.33,180.29,205.56,178.14Z" style="fill: rgb(38, 50, 56); transform-origin: 190.821px 170.84px;" id="el3f3mscpptyi" class="animable"></path><path d="M188,169.85l3.54-5s-12.42-1.57-12.75.42C178.38,168,182.07,169.86,188,169.85Z" style="fill: rgb(38, 50, 56); transform-origin: 185.149px 167.056px;" id="elw04y7dk4zjd" class="animable"></path><path d="M300.65,276.35a1.12,1.12,0,0,1-.71-.25c-4.83-3.86-20.16-17.53-15-31.2,4.22-11.22,14.46-20.67,26.7-24.68a94.43,94.43,0,0,1,14.37-3.1c3.29-.53,6.69-1.08,9.94-1.86,14.95-3.59,22.48-13.46,19.65-25.76-1.29-5.57-4.74-10.07-8.4-14.84-2.91-3.78-5.9-7.69-7.71-12.17,0,0,0-.08,0-.12-1.71-6.11.72-12,3.08-17.66.55-1.33,1.07-2.59,1.55-3.86,2-5.43,3.85-11.27,3.54-17.17-.37-7-5.06-14.56-11.94-19.15-10.75-7.19-30.59-13.61-39-4.58a27.68,27.68,0,0,0-2,2.56,25.84,25.84,0,0,1-2.82,3.37A15.46,15.46,0,0,1,279,109.72a15.75,15.75,0,0,1-11.3-8.2,1.13,1.13,0,0,1,.52-1.52,1.14,1.14,0,0,1,1.53.52,13.14,13.14,0,0,0,20.51,3.7,24.22,24.22,0,0,0,2.56-3.07A30.94,30.94,0,0,1,295,98.4c10.34-11.08,32.73-1.93,42,4.23,7.45,5,12.54,13.2,12.95,20.93.33,6.32-1.57,12.43-3.69,18.09-.48,1.31-1,2.64-1.57,3.94-2.2,5.3-4.48,10.77-3,16.11,1.69,4.17,4.58,7.93,7.38,11.57,3.64,4.75,7.41,9.66,8.81,15.72,3.09,13.45-5.28,24.63-21.34,28.49-3.33.8-6.77,1.36-10.1,1.89a92.43,92.43,0,0,0-14,3c-11.6,3.79-21.29,12.73-25.28,23.31-4.61,12.24,9.78,25,14.3,28.62a1.14,1.14,0,0,1-.71,2Z" style="fill: #318270; transform-origin: 313.048px 184.776px;" id="eloppyzw8xqt" class="animable"></path><g id="elc9bt4f6i60f"><path d="M300.65,276.35a1.12,1.12,0,0,1-.71-.25c-4.83-3.86-20.16-17.53-15-31.2,4.22-11.22,14.46-20.67,26.7-24.68a94.43,94.43,0,0,1,14.37-3.1c3.29-.53,6.69-1.08,9.94-1.86,14.95-3.59,22.48-13.46,19.65-25.76-1.29-5.57-4.74-10.07-8.4-14.84-2.91-3.78-5.9-7.69-7.71-12.17,0,0,0-.08,0-.12-1.71-6.11.72-12,3.08-17.66.55-1.33,1.07-2.59,1.55-3.86,2-5.43,3.85-11.27,3.54-17.17-.37-7-5.06-14.56-11.94-19.15-10.75-7.19-30.59-13.61-39-4.58a27.68,27.68,0,0,0-2,2.56,25.84,25.84,0,0,1-2.82,3.37A15.46,15.46,0,0,1,279,109.72a15.75,15.75,0,0,1-11.3-8.2,1.13,1.13,0,0,1,.52-1.52,1.14,1.14,0,0,1,1.53.52,13.14,13.14,0,0,0,20.51,3.7,24.22,24.22,0,0,0,2.56-3.07A30.94,30.94,0,0,1,295,98.4c10.34-11.08,32.73-1.93,42,4.23,7.45,5,12.54,13.2,12.95,20.93.33,6.32-1.57,12.43-3.69,18.09-.48,1.31-1,2.64-1.57,3.94-2.2,5.3-4.48,10.77-3,16.11,1.69,4.17,4.58,7.93,7.38,11.57,3.64,4.75,7.41,9.66,8.81,15.72,3.09,13.45-5.28,24.63-21.34,28.49-3.33.8-6.77,1.36-10.1,1.89a92.43,92.43,0,0,0-14,3c-11.6,3.79-21.29,12.73-25.28,23.31-4.61,12.24,9.78,25,14.3,28.62a1.14,1.14,0,0,1-.71,2Z" style="fill: rgb(255, 255, 255); opacity: 0.7; transform-origin: 313.048px 184.776px;" class="animable" id="elj7jcml6fv7e"></path></g><g id="eljmmpzqjqgt"><path d="M233,151.68c-1.29,2.15-1.58,9-.92,15.48,2.56-2.58,4.42-6.21,6.8-8.81l.5-.54C236.74,154.09,233.74,150.36,233,151.68Z" style="opacity: 0.2; transform-origin: 235.559px 159.284px;" class="animable" id="elxj4ixpw7mm"></path></g><path d="M232.23,127.12s-6,24.49,11.06,65L289,184c-.78-6.23-10.6-34.5-9-64.78a68.8,68.8,0,0,0-15.54,0A194.91,194.91,0,0,0,245,122.69,98,98,0,0,0,232.23,127.12Z" style="fill: #318270; transform-origin: 260.103px 155.45px;" id="elu3e4fm1sw29" class="animable"></path><g id="eljmxrx30cxbs"><path d="M232.23,127.12s-6,24.49,11.06,65L289,184c-.78-6.23-10.6-34.5-9-64.78a68.8,68.8,0,0,0-15.54,0A194.91,194.91,0,0,0,245,122.69,98,98,0,0,0,232.23,127.12Z" style="fill: rgb(255, 255, 255); opacity: 0.8; transform-origin: 260.103px 155.45px;" class="animable" id="elktihz47fty"></path></g><g id="ele7lvwuug16"><path d="M274.71,142.09a40.7,40.7,0,0,0,6.8,6.72c-.3-2.09-.58-4.23-.81-6.41Z" style="opacity: 0.2; transform-origin: 278.11px 145.45px;" class="animable" id="eloeh92eiba6"></path></g><path d="M243.29,192.17s-23.16,26.9-21.27,50.12c2,24.16,27.14,63.75,27.14,63.75l15.28-7.66s-10-41.61-17.76-53.7c8.46-14.09,19.63-30.91,27.34-56.7C259.9,190.5,243.29,192.17,243.29,192.17Z" style="fill: #318270; transform-origin: 247.965px 247.01px;" id="elt1n3a9wrokg" class="animable"></path><g id="elca8l8afu7so"><path d="M243.29,192.17s-23.16,26.9-21.27,50.12c2,24.16,27.14,63.75,27.14,63.75l15.28-7.66s-10-41.61-17.76-53.7c8.46-14.09,19.63-30.91,27.34-56.7C259.9,190.5,243.29,192.17,243.29,192.17Z" style="fill: rgb(255, 255, 255); opacity: 0.8; transform-origin: 247.965px 247.01px;" class="animable" id="elfyz7ind680s"></path></g><g id="elp6trd8q5pa"><path d="M265,206.25c-4.2,3.17-6.76,12.49-6.83,19a193.6,193.6,0,0,0,9.55-19.62A3.38,3.38,0,0,0,265,206.25Z" style="opacity: 0.2; transform-origin: 262.945px 215.406px;" class="animable" id="el067zo18pvhp"></path></g><path d="M249.57,304.6l13-7.93a1,1,0,0,1,1.23.29l5.55,9.58a1.77,1.77,0,0,1-.35,2.71c-3.83,2-4.12,1.82-8.89,4.44-2.93,1.62-8.79,5.29-12.84,7.52s-6.83-1.76-5.63-3.32c4.45-5.75,5.68-8,6.73-11.76A2.51,2.51,0,0,1,249.57,304.6Z" style="fill: #318270; transform-origin: 255.594px 309.221px;" id="elgl2l9qwfzbw" class="animable"></path><g id="elqvraht8os8d"><path d="M249.57,304.6l13-7.93a1,1,0,0,1,1.23.29l5.55,9.58a1.77,1.77,0,0,1-.35,2.71c-3.83,2-4.12,1.82-8.89,4.44-2.93,1.62-8.79,5.29-12.84,7.52s-6.83-1.76-5.63-3.32c4.45-5.75,5.68-8,6.73-11.76A2.51,2.51,0,0,1,249.57,304.6Z" style="fill: rgb(255, 255, 255); opacity: 0.8; transform-origin: 255.594px 309.221px;" class="animable" id="eld2o8txigx7n"></path></g><polygon points="351.33 319.64 275.15 397.65 262.04 371.07 324.45 307.16 351.33 319.64" style="fill: #318270; transform-origin: 306.685px 352.405px;" id="el5ay2hyfkj6s" class="animable"></polygon><g id="el1k8p4g8cx2nj"><polygon points="351.33 319.64 275.15 397.65 262.04 371.07 324.45 307.16 351.33 319.64" style="opacity: 0.4; transform-origin: 306.685px 352.405px;" class="animable" id="el3bt0zd7tw21"></polygon></g><polygon points="342.41 337.56 292.86 388.31 270.67 357.68 311.27 316.11 342.41 337.56" style="fill: #318270; transform-origin: 306.54px 352.21px;" id="elyj6tdjucsmg" class="animable"></polygon><g id="elwygk3jm3gq"><polygon points="342.41 337.56 292.86 388.31 270.67 357.68 311.27 316.11 342.41 337.56" style="opacity: 0.3; transform-origin: 306.54px 352.21px;" class="animable" id="el3opmnhh642w"></polygon></g><path d="M202.41,321.37s19.5,20.77,36.25,38.84a19.92,19.92,0,0,1,4.21,19.38c-3.87,13,1.8,35.93,1.8,35.93C226.14,399.72,176.38,385.9,202.41,321.37Z" style="fill: #318270; transform-origin: 219.85px 368.445px;" id="el0ds35z2rmra8" class="animable"></path><g id="eldcinbuflwy"><path d="M202.41,321.37s19.5,20.77,36.25,38.84a19.92,19.92,0,0,1,4.21,19.38c-3.87,13,1.8,35.93,1.8,35.93C226.14,399.72,176.38,385.9,202.41,321.37Z" style="opacity: 0.3; transform-origin: 219.85px 368.445px;" class="animable" id="elvqwfe850ma"></path></g><path d="M273.35,248.73s21.23,19,39.69,35.32a19.93,19.93,0,0,0,19.47,3.75c12.86-4.18,36,.95,36,.95C352.24,270.6,337.25,221.18,273.35,248.73Z" style="fill: #318270; transform-origin: 320.93px 264.716px;" id="elt0l8mcpli1" class="animable"></path><g id="el0gl5rg4bcqh9"><path d="M273.35,248.73s21.23,19,39.69,35.32a19.93,19.93,0,0,0,19.47,3.75c12.86-4.18,36,.95,36,.95C352.24,270.6,337.25,221.18,273.35,248.73Z" style="opacity: 0.3; transform-origin: 320.93px 264.716px;" class="animable" id="elmn6c1bt1fnn"></path></g><path d="M224.7,198.66c-41.75-36.35-86.82-47.65-105-29s-5.81,63.42,31.51,104.29l92.6,101.4a19.82,19.82,0,0,0,28.8.48l56.83-58.19a19.81,19.81,0,0,0-1.17-28.78Z" style="fill: #318270; transform-origin: 223.253px 271.296px;" id="elq1yhxiramc" class="animable"></path><g id="el31zeawlttxa"><path d="M273.79,360.51a3.65,3.65,0,0,1,1,5.8h0c-6.1,6.3-17.65,4.7-25.26-3.51l-91.87-99c-18.46-19.89-31.59-40-38.39-56.89-2-5,4.94-8.51,7.83-4,9.21,14.39,22.94,31.57,40.13,49.48L263.93,353A37.72,37.72,0,0,0,273.79,360.51Z" style="fill: rgb(255, 255, 255); opacity: 0.1; transform-origin: 197.363px 285.497px;" class="animable" id="elc5ekzgp4jd"></path></g><g id="ely4gmy9fcfgr"><path d="M158.1,162.29c-9.34-.34-21.07,5-30.71,14.86s-14.68,21.72-14.13,31.06c-3.77-16.35-1.8-30.14,6.43-38.58S141.67,158.9,158.1,162.29Z" style="opacity: 0.1; transform-origin: 134.76px 184.497px;" class="animable" id="elz1hbr5ft4zi"></path></g><g id="eld1tkwceic8j"><circle cx="189.7" cy="238" r="35.47" style="opacity: 0.3; transform-origin: 189.7px 238px; transform: rotate(-1.14deg);" class="animable" id="elgcqzrhekwi"></circle></g><g id="elgh9oywz18cw"><circle cx="188.51" cy="236.84" r="35.47" style="fill: rgb(255, 255, 255); transform-origin: 188.51px 236.84px; transform: rotate(-51.92deg);" class="animable" id="el9tvf80k662"></circle></g><g id="elaudrb7r2z6f"><circle cx="188.51" cy="236.84" r="32.09" style="fill: #318270; opacity: 0.7; transform-origin: 188.51px 236.84px; transform: rotate(-48.92deg);" class="animable" id="elnenzgubmrfc"></circle></g><g id="elzusqya4tc1l"><g style="opacity: 0.2; transform-origin: 182.545px 236.953px;" class="animable" id="elisptuup67zi"><path d="M165.56,214.41a31.67,31.67,0,0,0-7,10.87h0l15.36,40.14a32.13,32.13,0,0,0,20.12,3L171.54,209.6A32,32,0,0,0,165.56,214.41Z" style="fill: rgb(255, 255, 255); transform-origin: 176.3px 239.253px;" id="eld799vt1gfj" class="animable"></path><path d="M173.9,208.27l22.79,59.59a32.15,32.15,0,0,0,9.84-4.45L184.23,205A31.37,31.37,0,0,0,173.9,208.27Z" style="fill: rgb(255, 255, 255); transform-origin: 190.215px 236.43px;" id="elpst3vqt5ee" class="animable"></path></g></g><path d="M308.89,307.4l6.79-13.55a1,1,0,0,1,1.19-.4l9.6,4.5a1.77,1.77,0,0,1,1.14,2.48c-2.16,3.72-2.33,4.38-5,9.11-1.62,2.91-4.63,9.1-6.87,13.12s-6.71,2.11-6.52.16c.71-7.21.53-9.79-.56-13.49A2.48,2.48,0,0,1,308.89,307.4Z" style="fill: #318270; transform-origin: 318.173px 309.206px;" id="elt1x2vl8x0c" class="animable"></path><g id="elzkt4hyjxtmk"><path d="M308.89,307.4l6.79-13.55a1,1,0,0,1,1.19-.4l9.6,4.5a1.77,1.77,0,0,1,1.14,2.48c-2.16,3.72-2.33,4.38-5,9.11-1.62,2.91-4.63,9.1-6.87,13.12s-6.71,2.11-6.52.16c.71-7.21.53-9.79-.56-13.49A2.48,2.48,0,0,1,308.89,307.4Z" style="fill: rgb(255, 255, 255); opacity: 0.8; transform-origin: 318.173px 309.206px;" class="animable" id="elcz4tq0qdfp"></path></g><path d="M259.49,189.29s.09,42.56,9.24,63.13C278.75,275,309.51,310,309.51,310l11.6-11.65s-14.63-32-28.21-49.11c-.28-21.08,2-44.08-3.6-63.19A201,201,0,0,1,259.49,189.29Z" style="fill: #318270; transform-origin: 290.3px 248.025px;" id="eld7k5trjk0w5" class="animable"></path><g id="el0z54hzs6fn0b"><path d="M259.49,189.29s.09,42.56,9.24,63.13C278.75,275,309.51,310,309.51,310l11.6-11.65s-14.63-32-28.21-49.11c-.28-21.08,2-44.08-3.6-63.19A201,201,0,0,1,259.49,189.29Z" style="fill: rgb(255, 255, 255); opacity: 0.8; transform-origin: 290.3px 248.025px;" class="animable" id="elt1lvt9ne83h"></path></g><path d="M287.82,189.31c-21.21,4.9-37.18,5.4-43.69,5.35a3,3,0,0,1-3-3.21h0a3,3,0,0,1,3.05-2.86,189.74,189.74,0,0,0,42.29-5.19,3,3,0,0,1,3.62,2.23h0A3,3,0,0,1,287.82,189.31Z" style="fill: rgb(38, 50, 56); transform-origin: 265.654px 188.99px;" id="el32ni7f5ty8k" class="animable"></path><path d="M311.34,144.94c-1.8-4.13-4.3-6.87-7.67-9.77C297,129.4,286,120.46,280,119.26l-7.29,23.53,19.16,7.07c3.79,2.7,4.64,4.48,5.76,8.87.67,2.58,1.16,5.33,1.64,8.13.89,5.59,1.51,11.54,2.1,17.28l10,.86a93,93,0,0,0,1.73-9.39c.41-3.13.72-6.3.84-9.52a78,78,0,0,0-.16-9.88A35.81,35.81,0,0,0,311.34,144.94Z" style="fill: #318270; transform-origin: 293.368px 152.13px;" id="elz2y2gu0k3me" class="animable"></path><g id="elm8leqoz6gv"><path d="M311.34,144.94c-1.8-4.13-4.3-6.87-7.67-9.77C297,129.4,286,120.46,280,119.26l-7.29,23.53,19.16,7.07c3.79,2.7,4.64,4.48,5.76,8.87.67,2.58,1.16,5.33,1.64,8.13.89,5.59,1.51,11.54,2.1,17.28l10,.86a93,93,0,0,0,1.73-9.39c.41-3.13.72-6.3.84-9.52a78,78,0,0,0-.16-9.88A35.81,35.81,0,0,0,311.34,144.94Z" style="fill: rgb(255, 255, 255); opacity: 0.8; transform-origin: 293.368px 152.13px;" class="animable" id="elu6vak7a2bk8"></path></g><path d="M314.38,169.47l-15.78,0s-1.09,24.84,5.33,27.1C310.57,198.94,313.53,182.85,314.38,169.47Z" style="fill: rgb(38, 50, 56); transform-origin: 306.455px 183.137px;" id="elc3sf8ssx70b" class="animable"></path><path d="M303.06,184.18,299,179.62s-3.79,10.37-1.48,11.65S301.75,190,303.06,184.18Z" style="fill: rgb(38, 50, 56); transform-origin: 299.917px 185.607px;" id="el65e2la36vxa" class="animable"></path><g id="el9itay6iu3f"><path d="M264.41,119.24A194.91,194.91,0,0,0,245,122.69c-2.45.64-4.81,1.41-6.84,2.12a27.49,27.49,0,0,0,13.65,1.34,20.85,20.85,0,0,0,4.77-1.39,32.61,32.61,0,0,0,12.1-5.9C267.27,118.93,265.83,119.05,264.41,119.24Z" style="opacity: 0.2; transform-origin: 253.42px 122.668px;" class="animable" id="elbu5xe9rcs1e"></path></g><path d="M256.65,100.77c-.1,5.69.62,16,5.12,18.94,0,0,.06,2.49-9.24,4.12-7.59,1.33-7.85-1.08-7.85-1.08,5.87-2.56,4.9-7.08,3.07-11.16Z" style="fill: rgb(255, 181, 115); transform-origin: 253.225px 112.5px;" id="el0s3aqx8xsfv" class="animable"></path><g id="elclnbc1bvovc"><path d="M253,105.18l-5.26,6.41a18.41,18.41,0,0,1,1.06,2.93c2.29-.75,5.05-3.89,4.86-6.39A8.54,8.54,0,0,0,253,105.18Z" style="opacity: 0.2; transform-origin: 250.705px 109.85px;" class="animable" id="ely730ecruger"></path></g><path d="M239.26,100.15c-2.69-3.65-5.73-8.94-4.42-11.56s6.77-4.15,9.25-2.23C247.2,88.79,244.93,96.34,239.26,100.15Z" style="fill: rgb(38, 50, 56); transform-origin: 240.008px 92.8244px;" id="el7f1d0o1lvrx" class="animable"></path><path d="M257,93c.23,7.57.75,12-2.7,16.21-5.19,6.34-14.8,3.74-17.29-3.61C234.78,99,234.79,87.68,241.88,84A10.34,10.34,0,0,1,257,93Z" style="fill: rgb(255, 181, 115); transform-origin: 246.434px 97.8126px;" id="elg3v2mksdcc" class="animable"></path><path d="M256.74,100.07c-3.36-3-7.39-7.63-6.62-10.46s5.81-5.41,8.62-4C262.27,87.35,261.54,95.21,256.74,100.07Z" style="fill: rgb(38, 50, 56); transform-origin: 255.486px 92.6413px;" id="elx0ev9sbhlwk" class="animable"></path><path d="M253,89.14c-5.17,1.43-19.79,4.31-17.74-1.85s10.09-7.33,13-6,5.21-2.19,5.21-2.19c.42,1-1.81,3.75-5,4.2s13.78-2.5,9.33,3.54S253,89.14,253,89.14Z" style="fill: rgb(38, 50, 56); transform-origin: 246.807px 85.087px;" id="elc6jssvvzr5v" class="animable"></path><path d="M261.17,101a7.16,7.16,0,0,1-4.18,3.57c-2.4.77-3.69-1.36-3.1-3.68.53-2.09,2.43-5,4.88-4.75A3.23,3.23,0,0,1,261.17,101Z" style="fill: rgb(255, 181, 115); transform-origin: 257.686px 100.428px;" id="elyzdkx5zjss" class="animable"></path><path d="M245.78,96.12c.06.61-.22,1.14-.62,1.18s-.77-.43-.83-1,.22-1.14.62-1.17S245.72,95.51,245.78,96.12Z" style="fill: rgb(38, 50, 56); transform-origin: 245.055px 96.2154px;" id="elykd6ea8pl5r" class="animable"></path><path d="M238.85,96.76c.06.61-.22,1.14-.62,1.17s-.78-.43-.83-1,.22-1.14.62-1.18S238.79,96.14,238.85,96.76Z" style="fill: rgb(38, 50, 56); transform-origin: 238.126px 96.8394px;" id="elec7r1r02de6" class="animable"></path><path d="M241.08,96.86a21.89,21.89,0,0,1-2.45,5.51,3.52,3.52,0,0,0,3,.28Z" style="fill: rgb(237, 137, 62); transform-origin: 240.13px 99.8612px;" id="eldegll7kgw6" class="animable"></path><path d="M246.6,102.94a5.36,5.36,0,0,1-3,1.24.18.18,0,0,1,0-.36,4.87,4.87,0,0,0,3.79-2.26.17.17,0,0,1,.24-.07.18.18,0,0,1,.08.24A4.69,4.69,0,0,1,246.6,102.94Z" style="fill: rgb(38, 50, 56); transform-origin: 245.574px 102.823px;" id="elvyszqgp78" class="animable"></path><path d="M247.86,93.61a.36.36,0,0,1-.5,0,2.88,2.88,0,0,0-2.41-1,.36.36,0,0,1-.42-.3.37.37,0,0,1,.3-.42,3.6,3.6,0,0,1,3.07,1.22.36.36,0,0,1,0,.51Z" style="fill: rgb(38, 50, 56); transform-origin: 246.266px 92.7918px;" id="el3xn3kmbx8r9" class="animable"></path><path d="M235.8,94.57a.36.36,0,0,1-.36.06.35.35,0,0,1-.21-.46,3.61,3.61,0,0,1,2.4-2.27.36.36,0,1,1,.15.71,2.86,2.86,0,0,0-1.88,1.81A.4.4,0,0,1,235.8,94.57Z" style="fill: rgb(38, 50, 56); transform-origin: 236.636px 93.273px;" id="ele7x90le7fog" class="animable"></path><path d="M273.51,97.88c2.34,12.37-4.91,24.07-16.34,26.81-.44.1-.89.19-1.34.27A21.92,21.92,0,0,1,240,121.61a19.47,19.47,0,1,0-6.47-34.84,21.56,21.56,0,0,1,8.66-6.88h0A21.41,21.41,0,0,1,247,78.46C259.21,76.34,271.07,85,273.51,97.88Z" style="fill: #318270; transform-origin: 253.739px 101.707px;" id="el3uizd9w7xut" class="animable"></path><g id="eld7pml7xamfb"><path d="M273.51,97.88c2.34,12.37-4.91,24.07-16.34,26.81-.44.1-.89.19-1.34.27A21.92,21.92,0,0,1,240,121.61a19.47,19.47,0,1,0-6.47-34.84,21.56,21.56,0,0,1,8.66-6.88h0A21.41,21.41,0,0,1,247,78.46C259.21,76.34,271.07,85,273.51,97.88Z" style="fill: rgb(255, 255, 255); opacity: 0.8; transform-origin: 253.739px 101.707px;" class="animable" id="elbf4uk58tpbr"></path></g><path d="M269,99.38c2.19,11.06-2.93,21.45-11.78,25.31a19.47,19.47,0,0,1-4.46,1.31c-7.22,1.18-14.38-1.85-19.33-7.44a19.47,19.47,0,1,0,.16-31.79,19,19,0,0,0-4.84,4.86,19.77,19.77,0,0,1,13.5-11.74h0c.43-.1.86-.18,1.29-.26C255,77.72,266.42,86.58,269,99.38Z" style="fill: #318270; transform-origin: 249.127px 102.812px;" id="elrud8w4gmpa" class="animable"></path><g id="elslwxbjj562i"><path d="M269,99.38c2.19,11.06-2.93,21.45-11.78,25.31a19.47,19.47,0,0,1-4.46,1.31c-7.22,1.18-14.38-1.85-19.33-7.44a19.47,19.47,0,1,0,.16-31.79,19,19,0,0,0-4.84,4.86,19.77,19.77,0,0,1,13.5-11.74h0c.43-.1.86-.18,1.29-.26C255,77.72,266.42,86.58,269,99.38Z" style="fill: rgb(255, 255, 255); opacity: 0.6; transform-origin: 249.127px 102.812px;" class="animable" id="elsu71uhvjat"></path></g><g id="elmiuvznupzhl"><path d="M264.16,101.79a19.47,19.47,0,1,1-20.38-18.52A19.47,19.47,0,0,1,264.16,101.79Z" style="fill: #318270; opacity: 0.2; transform-origin: 244.712px 102.718px;" class="animable" id="el8w58ajkd092"></path></g><g id="elivrx8dgd8uc"><path d="M225.26,103.65a19.47,19.47,0,1,0,38.9-1.86C255.42,99.82,234.28,98.44,225.26,103.65Z" style="fill: #318270; opacity: 0.2; transform-origin: 244.721px 111.108px;" class="animable" id="elu2ysfm6p8n"></path></g><g id="elri6urorgahd"><path d="M267.1,149.07a183.46,183.46,0,0,0-26.54,3.55l-.49-.45,26.08-17.85.48.45S266.84,144.33,267.1,149.07Z" style="opacity: 0.2; transform-origin: 253.585px 143.47px;" class="animable" id="el2rv260m0v7r"></path></g><path d="M266.62,148.62a183.78,183.78,0,0,0-26.55,3.55c-.49-4.79-.87-9.61-1.11-14.47a197.59,197.59,0,0,1,27.19-3.38Q266.23,141.51,266.62,148.62Z" style="fill: rgb(255, 255, 255); transform-origin: 252.79px 143.245px;" id="elgj4iqzo8kf" class="animable"></path><g id="elstzgcj2wmgo"><path d="M260.93,138.94a1.84,1.84,0,1,1-2.11-1.83A2,2,0,0,1,260.93,138.94Z" style="fill: #318270; opacity: 0.3; transform-origin: 259.09px 138.938px;" class="animable" id="elqncx7vsj1st"></path></g><g id="el10jorrrtw2sl"><path d="M261.09,144.63a1.84,1.84,0,1,1-2.1-1.83A2,2,0,0,1,261.09,144.63Z" style="fill: #318270; opacity: 0.3; transform-origin: 259.25px 144.629px;" class="animable" id="elstrwtme3b0h"></path></g><path d="M243.35,148.08a95.24,95.24,0,0,1,9.77-1.23c-2.17-3-5.42-8.13-5.42-8.13A92.75,92.75,0,0,0,243.35,148.08Z" style="fill: #318270; transform-origin: 248.235px 143.4px;" id="elvqga6t02uag" class="animable"></path></g><defs>     <filter id="active" height="200%">         <feMorphology in="SourceAlpha" result="DILATED" operator="dilate" radius="2"></feMorphology>                <feFlood flood-color="#32DFEC" flood-opacity="1" result="PINK"></feFlood>        <feComposite in="PINK" in2="DILATED" operator="in" result="OUTLINE"></feComposite>        <feMerge>            <feMergeNode in="OUTLINE"></feMergeNode>            <feMergeNode in="SourceGraphic"></feMergeNode>        </feMerge>    </filter>    <filter id="hover" height="200%">        <feMorphology in="SourceAlpha" result="DILATED" operator="dilate" radius="2"></feMorphology>                <feFlood flood-color="#ff0000" flood-opacity="0.5" result="PINK"></feFlood>        <feComposite in="PINK" in2="DILATED" operator="in" result="OUTLINE"></feComposite>        <feMerge>            <feMergeNode in="OUTLINE"></feMergeNode>            <feMergeNode in="SourceGraphic"></feMergeNode>        </feMerge>            <feColorMatrix type="matrix" values="0   0   0   0   0                0   1   0   0   0                0   0   0   0   0                0   0   0   1   0 "></feColorMatrix>    </filter></defs></svg>